<mxfile host="Electron" agent="Mozilla/5.0 (Windows NT 10.0; Win64; x64) AppleWebKit/537.36 (KHTML, like Gecko) draw.io/26.0.16 Chrome/132.0.6834.196 Electron/34.2.0 Safari/537.36" version="26.0.16" pages="2">
  <diagram id="C5RBs43oDa-KdzZeNtuy" name="Page-1">
    <mxGraphModel dx="1363" dy="1007" grid="1" gridSize="10" guides="1" tooltips="1" connect="1" arrows="1" fold="1" page="1" pageScale="1" pageWidth="827" pageHeight="1169" math="0" shadow="0">
      <root>
        <mxCell id="WIyWlLk6GJQsqaUBKTNV-0" />
        <mxCell id="WIyWlLk6GJQsqaUBKTNV-1" parent="WIyWlLk6GJQsqaUBKTNV-0" />
        <mxCell id="iMzquYCJ3Ts_0PcDVd9T-0" value="Customer" style="swimlane;fontStyle=3;align=center;verticalAlign=top;childLayout=stackLayout;horizontal=1;startSize=26;horizontalStack=0;resizeParent=1;resizeLast=0;collapsible=1;marginBottom=0;rounded=0;shadow=0;strokeWidth=1;fillColor=#f8cecc;strokeColor=#b85450;" parent="WIyWlLk6GJQsqaUBKTNV-1" vertex="1">
          <mxGeometry x="140" y="170" width="160" height="112" as="geometry">
            <mxRectangle x="230" y="140" width="160" height="26" as="alternateBounds" />
          </mxGeometry>
        </mxCell>
        <mxCell id="iMzquYCJ3Ts_0PcDVd9T-1" value="- Name" style="text;align=left;verticalAlign=top;spacingLeft=4;spacingRight=4;overflow=hidden;rotatable=0;points=[[0,0.5],[1,0.5]];portConstraint=eastwest;rounded=0;shadow=0;html=0;fillColor=#dae8fc;strokeColor=#6c8ebf;" parent="iMzquYCJ3Ts_0PcDVd9T-0" vertex="1">
          <mxGeometry y="26" width="160" height="26" as="geometry" />
        </mxCell>
        <mxCell id="iMzquYCJ3Ts_0PcDVd9T-2" value="- Email" style="text;align=left;verticalAlign=top;spacingLeft=4;spacingRight=4;overflow=hidden;rotatable=0;points=[[0,0.5],[1,0.5]];portConstraint=eastwest;rounded=0;shadow=0;html=0;fillColor=#dae8fc;strokeColor=#6c8ebf;" parent="iMzquYCJ3Ts_0PcDVd9T-0" vertex="1">
          <mxGeometry y="52" width="160" height="26" as="geometry" />
        </mxCell>
        <mxCell id="iMzquYCJ3Ts_0PcDVd9T-3" value="- Password" style="text;align=left;verticalAlign=top;spacingLeft=4;spacingRight=4;overflow=hidden;rotatable=0;points=[[0,0.5],[1,0.5]];portConstraint=eastwest;rounded=0;shadow=0;html=0;fillColor=#dae8fc;strokeColor=#6c8ebf;" parent="iMzquYCJ3Ts_0PcDVd9T-0" vertex="1">
          <mxGeometry y="78" width="160" height="26" as="geometry" />
        </mxCell>
        <mxCell id="iMzquYCJ3Ts_0PcDVd9T-5" value="" style="line;html=1;strokeWidth=1;align=left;verticalAlign=middle;spacingTop=-1;spacingLeft=3;spacingRight=3;rotatable=0;labelPosition=right;points=[];portConstraint=eastwest;" parent="iMzquYCJ3Ts_0PcDVd9T-0" vertex="1">
          <mxGeometry y="104" width="160" height="8" as="geometry" />
        </mxCell>
        <mxCell id="iMzquYCJ3Ts_0PcDVd9T-8" style="edgeStyle=orthogonalEdgeStyle;rounded=0;orthogonalLoop=1;jettySize=auto;html=1;exitX=1;exitY=0.5;exitDx=0;exitDy=0;entryX=0;entryY=0.5;entryDx=0;entryDy=0;dashed=1;strokeWidth=2;" parent="WIyWlLk6GJQsqaUBKTNV-1" source="iMzquYCJ3Ts_0PcDVd9T-2" target="iMzquYCJ3Ts_0PcDVd9T-16" edge="1">
          <mxGeometry relative="1" as="geometry">
            <mxPoint x="400" y="380" as="targetPoint" />
          </mxGeometry>
        </mxCell>
        <mxCell id="iMzquYCJ3Ts_0PcDVd9T-9" value="PaymentInterface &lt;interface&gt;" style="swimlane;fontStyle=1;align=center;verticalAlign=top;childLayout=stackLayout;horizontal=1;startSize=26;horizontalStack=0;resizeParent=1;resizeLast=0;collapsible=1;marginBottom=0;rounded=0;shadow=0;strokeWidth=1;fillColor=#f8cecc;strokeColor=#b85450;" parent="WIyWlLk6GJQsqaUBKTNV-1" vertex="1">
          <mxGeometry x="520" y="190" width="200" height="100" as="geometry">
            <mxRectangle x="340" y="380" width="170" height="26" as="alternateBounds" />
          </mxGeometry>
        </mxCell>
        <mxCell id="iMzquYCJ3Ts_0PcDVd9T-15" value="" style="line;html=1;strokeWidth=1;align=left;verticalAlign=middle;spacingTop=-1;spacingLeft=3;spacingRight=3;rotatable=0;labelPosition=right;points=[];portConstraint=eastwest;" parent="iMzquYCJ3Ts_0PcDVd9T-9" vertex="1">
          <mxGeometry y="26" width="200" height="8" as="geometry" />
        </mxCell>
        <mxCell id="iMzquYCJ3Ts_0PcDVd9T-16" value="+ Charge() : bool    " style="text;align=left;verticalAlign=top;spacingLeft=4;spacingRight=4;overflow=hidden;rotatable=0;points=[[0,0.5],[1,0.5]];portConstraint=eastwest;fillColor=#fff2cc;strokeColor=#d6b656;" parent="iMzquYCJ3Ts_0PcDVd9T-9" vertex="1">
          <mxGeometry y="34" width="200" height="26" as="geometry" />
        </mxCell>
        <mxCell id="iMzquYCJ3Ts_0PcDVd9T-17" value="+ Refund() : bool" style="text;align=left;verticalAlign=top;spacingLeft=4;spacingRight=4;overflow=hidden;rotatable=0;points=[[0,0.5],[1,0.5]];portConstraint=eastwest;fillColor=#fff2cc;strokeColor=#d6b656;" parent="iMzquYCJ3Ts_0PcDVd9T-9" vertex="1">
          <mxGeometry y="60" width="200" height="26" as="geometry" />
        </mxCell>
        <mxCell id="iMzquYCJ3Ts_0PcDVd9T-18" value="&lt;div&gt;&lt;span style=&quot;font-size: 18px;&quot;&gt;&lt;b&gt;Dependency&lt;/b&gt;&lt;/span&gt;&lt;/div&gt;&lt;b&gt;&lt;font style=&quot;font-size: 18px;&quot;&gt;association&amp;nbsp;&lt;/font&gt;&lt;/b&gt;" style="text;html=1;align=center;verticalAlign=middle;resizable=0;points=[];autosize=1;strokeColor=none;fillColor=none;" parent="WIyWlLk6GJQsqaUBKTNV-1" vertex="1">
          <mxGeometry x="324" y="160" width="130" height="60" as="geometry" />
        </mxCell>
        <mxCell id="iMzquYCJ3Ts_0PcDVd9T-19" value="&lt;font style=&quot;font-size: 18px;&quot;&gt;&lt;b&gt;1..1&lt;/b&gt;&lt;/font&gt;" style="text;html=1;align=center;verticalAlign=middle;resizable=0;points=[];autosize=1;strokeColor=none;fillColor=none;" parent="WIyWlLk6GJQsqaUBKTNV-1" vertex="1">
          <mxGeometry x="294" y="230" width="50" height="40" as="geometry" />
        </mxCell>
        <mxCell id="iMzquYCJ3Ts_0PcDVd9T-20" value="&lt;b&gt;&lt;font style=&quot;font-size: 18px;&quot;&gt;1..*&lt;/font&gt;&lt;/b&gt;" style="text;html=1;align=center;verticalAlign=middle;resizable=0;points=[];autosize=1;strokeColor=none;fillColor=none;" parent="WIyWlLk6GJQsqaUBKTNV-1" vertex="1">
          <mxGeometry x="435" y="242" width="50" height="40" as="geometry" />
        </mxCell>
        <mxCell id="iMzquYCJ3Ts_0PcDVd9T-21" value="Cart" style="swimlane;fontStyle=1;align=center;verticalAlign=top;childLayout=stackLayout;horizontal=1;startSize=26;horizontalStack=0;resizeParent=1;resizeLast=0;collapsible=1;marginBottom=0;rounded=0;shadow=0;strokeWidth=1;fillColor=#f8cecc;strokeColor=#b85450;" parent="WIyWlLk6GJQsqaUBKTNV-1" vertex="1">
          <mxGeometry x="20" y="451" width="200" height="170" as="geometry">
            <mxRectangle x="340" y="380" width="170" height="26" as="alternateBounds" />
          </mxGeometry>
        </mxCell>
        <mxCell id="iMzquYCJ3Ts_0PcDVd9T-22" value="- NumberOfEvents" style="text;align=left;verticalAlign=top;spacingLeft=4;spacingRight=4;overflow=hidden;rotatable=0;points=[[0,0.5],[1,0.5]];portConstraint=eastwest;fillColor=#dae8fc;strokeColor=#6c8ebf;" parent="iMzquYCJ3Ts_0PcDVd9T-21" vertex="1">
          <mxGeometry y="26" width="200" height="32" as="geometry" />
        </mxCell>
        <mxCell id="iMzquYCJ3Ts_0PcDVd9T-23" value="" style="line;html=1;strokeWidth=1;align=left;verticalAlign=middle;spacingTop=-1;spacingLeft=3;spacingRight=3;rotatable=0;labelPosition=right;points=[];portConstraint=eastwest;" parent="iMzquYCJ3Ts_0PcDVd9T-21" vertex="1">
          <mxGeometry y="58" width="200" height="8" as="geometry" />
        </mxCell>
        <mxCell id="iMzquYCJ3Ts_0PcDVd9T-24" value="+ checkout() : bool" style="text;align=left;verticalAlign=top;spacingLeft=4;spacingRight=4;overflow=hidden;rotatable=0;points=[[0,0.5],[1,0.5]];portConstraint=eastwest;fillColor=#fff2cc;strokeColor=#d6b656;" parent="iMzquYCJ3Ts_0PcDVd9T-21" vertex="1">
          <mxGeometry y="66" width="200" height="26" as="geometry" />
        </mxCell>
        <mxCell id="iMzquYCJ3Ts_0PcDVd9T-73" value="+ totalPrice() : double" style="text;align=left;verticalAlign=top;spacingLeft=4;spacingRight=4;overflow=hidden;rotatable=0;points=[[0,0.5],[1,0.5]];portConstraint=eastwest;fillColor=#fff2cc;strokeColor=#d6b656;" parent="iMzquYCJ3Ts_0PcDVd9T-21" vertex="1">
          <mxGeometry y="92" width="200" height="26" as="geometry" />
        </mxCell>
        <mxCell id="iMzquYCJ3Ts_0PcDVd9T-90" value="+ totalWeight () : double" style="text;align=left;verticalAlign=top;spacingLeft=4;spacingRight=4;overflow=hidden;rotatable=0;points=[[0,0.5],[1,0.5]];portConstraint=eastwest;fillColor=#fff2cc;strokeColor=#d6b656;" parent="iMzquYCJ3Ts_0PcDVd9T-21" vertex="1">
          <mxGeometry y="118" width="200" height="26" as="geometry" />
        </mxCell>
        <mxCell id="iMzquYCJ3Ts_0PcDVd9T-91" value="+ ShippingCost() : double" style="text;align=left;verticalAlign=top;spacingLeft=4;spacingRight=4;overflow=hidden;rotatable=0;points=[[0,0.5],[1,0.5]];portConstraint=eastwest;fillColor=#fff2cc;strokeColor=#d6b656;" parent="iMzquYCJ3Ts_0PcDVd9T-21" vertex="1">
          <mxGeometry y="144" width="200" height="26" as="geometry" />
        </mxCell>
        <mxCell id="iMzquYCJ3Ts_0PcDVd9T-26" value="&lt;font style=&quot;font-size: 18px;&quot;&gt;&lt;b&gt;1..1&lt;/b&gt;&lt;/font&gt;" style="text;html=1;align=center;verticalAlign=middle;resizable=0;points=[];autosize=1;strokeColor=none;fillColor=none;" parent="WIyWlLk6GJQsqaUBKTNV-1" vertex="1">
          <mxGeometry x="160" y="282" width="50" height="40" as="geometry" />
        </mxCell>
        <mxCell id="iMzquYCJ3Ts_0PcDVd9T-27" value="&lt;font style=&quot;font-size: 18px;&quot;&gt;&lt;b&gt;1..1&lt;/b&gt;&lt;/font&gt;" style="text;html=1;align=center;verticalAlign=middle;resizable=0;points=[];autosize=1;strokeColor=none;fillColor=none;" parent="WIyWlLk6GJQsqaUBKTNV-1" vertex="1">
          <mxGeometry x="70" y="411" width="50" height="40" as="geometry" />
        </mxCell>
        <mxCell id="iMzquYCJ3Ts_0PcDVd9T-28" value="ProductInCart" style="swimlane;fontStyle=1;align=center;verticalAlign=top;childLayout=stackLayout;horizontal=1;startSize=26;horizontalStack=0;resizeParent=1;resizeLast=0;collapsible=1;marginBottom=0;rounded=0;shadow=0;strokeWidth=1;fillColor=#f8cecc;strokeColor=#b85450;" parent="WIyWlLk6GJQsqaUBKTNV-1" vertex="1">
          <mxGeometry x="289" y="700" width="200" height="100" as="geometry">
            <mxRectangle x="340" y="380" width="170" height="26" as="alternateBounds" />
          </mxGeometry>
        </mxCell>
        <mxCell id="iMzquYCJ3Ts_0PcDVd9T-35" value="- SelectedQuantity" style="text;align=left;verticalAlign=top;spacingLeft=4;spacingRight=4;overflow=hidden;rotatable=0;points=[[0,0.5],[1,0.5]];portConstraint=eastwest;fillColor=#dae8fc;strokeColor=#6c8ebf;" parent="iMzquYCJ3Ts_0PcDVd9T-28" vertex="1">
          <mxGeometry y="26" width="200" height="32" as="geometry" />
        </mxCell>
        <mxCell id="iMzquYCJ3Ts_0PcDVd9T-30" value="" style="line;html=1;strokeWidth=1;align=left;verticalAlign=middle;spacingTop=-1;spacingLeft=3;spacingRight=3;rotatable=0;labelPosition=right;points=[];portConstraint=eastwest;" parent="iMzquYCJ3Ts_0PcDVd9T-28" vertex="1">
          <mxGeometry y="58" width="200" height="8" as="geometry" />
        </mxCell>
        <mxCell id="iMzquYCJ3Ts_0PcDVd9T-31" value="+ CalculateTotalPrice() : double" style="text;align=left;verticalAlign=top;spacingLeft=4;spacingRight=4;overflow=hidden;rotatable=0;points=[[0,0.5],[1,0.5]];portConstraint=eastwest;fillColor=#fff2cc;strokeColor=#d6b656;" parent="iMzquYCJ3Ts_0PcDVd9T-28" vertex="1">
          <mxGeometry y="66" width="200" height="26" as="geometry" />
        </mxCell>
        <mxCell id="iMzquYCJ3Ts_0PcDVd9T-57" value="Product &lt;Abstract Class&gt;" style="swimlane;fontStyle=1;align=center;verticalAlign=top;childLayout=stackLayout;horizontal=1;startSize=26;horizontalStack=0;resizeParent=1;resizeLast=0;collapsible=1;marginBottom=0;rounded=0;shadow=0;strokeWidth=1;fillColor=#f8cecc;strokeColor=#b85450;" parent="WIyWlLk6GJQsqaUBKTNV-1" vertex="1">
          <mxGeometry x="680" y="400" width="360" height="240" as="geometry">
            <mxRectangle x="340" y="380" width="170" height="26" as="alternateBounds" />
          </mxGeometry>
        </mxCell>
        <mxCell id="iMzquYCJ3Ts_0PcDVd9T-58" value="- Name" style="text;align=left;verticalAlign=top;spacingLeft=4;spacingRight=4;overflow=hidden;rotatable=0;points=[[0,0.5],[1,0.5]];portConstraint=eastwest;fillColor=#dae8fc;strokeColor=#6c8ebf;" parent="iMzquYCJ3Ts_0PcDVd9T-57" vertex="1">
          <mxGeometry y="26" width="360" height="32" as="geometry" />
        </mxCell>
        <mxCell id="iMzquYCJ3Ts_0PcDVd9T-59" value="- Price" style="text;align=left;verticalAlign=top;spacingLeft=4;spacingRight=4;overflow=hidden;rotatable=0;points=[[0,0.5],[1,0.5]];portConstraint=eastwest;fillColor=#dae8fc;strokeColor=#6c8ebf;" parent="iMzquYCJ3Ts_0PcDVd9T-57" vertex="1">
          <mxGeometry y="58" width="360" height="32" as="geometry" />
        </mxCell>
        <mxCell id="iMzquYCJ3Ts_0PcDVd9T-60" value="- AvailableQuantity" style="text;align=left;verticalAlign=top;spacingLeft=4;spacingRight=4;overflow=hidden;rotatable=0;points=[[0,0.5],[1,0.5]];portConstraint=eastwest;fillColor=#dae8fc;strokeColor=#6c8ebf;" parent="iMzquYCJ3Ts_0PcDVd9T-57" vertex="1">
          <mxGeometry y="90" width="360" height="32" as="geometry" />
        </mxCell>
        <mxCell id="iMzquYCJ3Ts_0PcDVd9T-92" value="- ExpireDate" style="text;align=left;verticalAlign=top;spacingLeft=4;spacingRight=4;overflow=hidden;rotatable=0;points=[[0,0.5],[1,0.5]];portConstraint=eastwest;fillColor=#dae8fc;strokeColor=#6c8ebf;" parent="iMzquYCJ3Ts_0PcDVd9T-57" vertex="1">
          <mxGeometry y="122" width="360" height="32" as="geometry" />
        </mxCell>
        <mxCell id="iMzquYCJ3Ts_0PcDVd9T-61" value="" style="line;html=1;strokeWidth=1;align=left;verticalAlign=middle;spacingTop=-1;spacingLeft=3;spacingRight=3;rotatable=0;labelPosition=right;points=[];portConstraint=eastwest;" parent="iMzquYCJ3Ts_0PcDVd9T-57" vertex="1">
          <mxGeometry y="154" width="360" height="8" as="geometry" />
        </mxCell>
        <mxCell id="iMzquYCJ3Ts_0PcDVd9T-62" value="+ checkForAvailableQuantity(int quantity) : bool" style="text;align=left;verticalAlign=top;spacingLeft=4;spacingRight=4;overflow=hidden;rotatable=0;points=[[0,0.5],[1,0.5]];portConstraint=eastwest;fillColor=#fff2cc;strokeColor=#d6b656;" parent="iMzquYCJ3Ts_0PcDVd9T-57" vertex="1">
          <mxGeometry y="162" width="360" height="26" as="geometry" />
        </mxCell>
        <mxCell id="iMzquYCJ3Ts_0PcDVd9T-65" value="+ decreaseQuantityby(int quantity) : bool" style="text;align=left;verticalAlign=top;spacingLeft=4;spacingRight=4;overflow=hidden;rotatable=0;points=[[0,0.5],[1,0.5]];portConstraint=eastwest;fillColor=#fff2cc;strokeColor=#d6b656;" parent="iMzquYCJ3Ts_0PcDVd9T-57" vertex="1">
          <mxGeometry y="188" width="360" height="26" as="geometry" />
        </mxCell>
        <mxCell id="iMzquYCJ3Ts_0PcDVd9T-86" value="+ getName() : String" style="text;align=left;verticalAlign=top;spacingLeft=4;spacingRight=4;overflow=hidden;rotatable=0;points=[[0,0.5],[1,0.5]];portConstraint=eastwest;fillColor=#fff2cc;strokeColor=#d6b656;" parent="iMzquYCJ3Ts_0PcDVd9T-57" vertex="1">
          <mxGeometry y="214" width="360" height="26" as="geometry" />
        </mxCell>
        <mxCell id="iMzquYCJ3Ts_0PcDVd9T-64" value="" style="endArrow=diamondThin;endFill=0;endSize=24;html=1;rounded=0;exitX=1;exitY=0.5;exitDx=0;exitDy=0;strokeWidth=2;entryX=0;entryY=0.5;entryDx=0;entryDy=0;" parent="WIyWlLk6GJQsqaUBKTNV-1" source="iMzquYCJ3Ts_0PcDVd9T-28" target="iMzquYCJ3Ts_0PcDVd9T-60" edge="1">
          <mxGeometry width="160" relative="1" as="geometry">
            <mxPoint x="630" y="660" as="sourcePoint" />
            <mxPoint x="590" y="750" as="targetPoint" />
            <Array as="points">
              <mxPoint x="550" y="740" />
              <mxPoint x="550" y="506" />
            </Array>
          </mxGeometry>
        </mxCell>
        <mxCell id="iMzquYCJ3Ts_0PcDVd9T-66" value="&lt;b&gt;&lt;font style=&quot;font-size: 18px;&quot;&gt;0..*&lt;/font&gt;&lt;/b&gt;" style="text;html=1;align=center;verticalAlign=middle;resizable=0;points=[];autosize=1;strokeColor=none;fillColor=none;" parent="WIyWlLk6GJQsqaUBKTNV-1" vertex="1">
          <mxGeometry x="490" y="700" width="50" height="40" as="geometry" />
        </mxCell>
        <mxCell id="iMzquYCJ3Ts_0PcDVd9T-67" value="&lt;font style=&quot;font-size: 18px;&quot;&gt;&lt;b&gt;1..1&lt;/b&gt;&lt;/font&gt;" style="text;html=1;align=center;verticalAlign=middle;resizable=0;points=[];autosize=1;strokeColor=none;fillColor=none;" parent="WIyWlLk6GJQsqaUBKTNV-1" vertex="1">
          <mxGeometry x="620" y="460" width="50" height="40" as="geometry" />
        </mxCell>
        <mxCell id="iMzquYCJ3Ts_0PcDVd9T-68" value="&lt;font style=&quot;font-size: 18px;&quot;&gt;&lt;b&gt;1..1&lt;/b&gt;&lt;/font&gt;" style="text;html=1;align=center;verticalAlign=middle;resizable=0;points=[];autosize=1;strokeColor=none;fillColor=none;" parent="WIyWlLk6GJQsqaUBKTNV-1" vertex="1">
          <mxGeometry x="80" y="630" width="50" height="40" as="geometry" />
        </mxCell>
        <mxCell id="iMzquYCJ3Ts_0PcDVd9T-69" value="&lt;b&gt;&lt;font style=&quot;font-size: 18px;&quot;&gt;0..*&lt;/font&gt;&lt;/b&gt;" style="text;html=1;align=center;verticalAlign=middle;resizable=0;points=[];autosize=1;strokeColor=none;fillColor=none;" parent="WIyWlLk6GJQsqaUBKTNV-1" vertex="1">
          <mxGeometry x="239" y="700" width="50" height="40" as="geometry" />
        </mxCell>
        <mxCell id="iMzquYCJ3Ts_0PcDVd9T-71" value="&lt;span style=&quot;font-size: 18px;&quot;&gt;&lt;b&gt;aggregation&lt;/b&gt;&lt;/span&gt;" style="text;html=1;align=center;verticalAlign=middle;resizable=0;points=[];autosize=1;strokeColor=none;fillColor=none;" parent="WIyWlLk6GJQsqaUBKTNV-1" vertex="1">
          <mxGeometry x="415" y="560" width="130" height="40" as="geometry" />
        </mxCell>
        <mxCell id="iMzquYCJ3Ts_0PcDVd9T-72" style="edgeStyle=orthogonalEdgeStyle;rounded=0;orthogonalLoop=1;jettySize=auto;html=1;entryX=0;entryY=0.5;entryDx=0;entryDy=0;exitX=0.5;exitY=1;exitDx=0;exitDy=0;" parent="WIyWlLk6GJQsqaUBKTNV-1" source="iMzquYCJ3Ts_0PcDVd9T-21" target="iMzquYCJ3Ts_0PcDVd9T-28" edge="1">
          <mxGeometry relative="1" as="geometry">
            <mxPoint x="90" y="780" as="sourcePoint" />
            <mxPoint x="100" y="600" as="targetPoint" />
          </mxGeometry>
        </mxCell>
        <mxCell id="iMzquYCJ3Ts_0PcDVd9T-74" value="&lt;b&gt;&lt;font style=&quot;font-size: 18px;&quot;&gt;association&amp;nbsp;&lt;/font&gt;&lt;/b&gt;" style="text;html=1;align=center;verticalAlign=middle;resizable=0;points=[];autosize=1;strokeColor=none;fillColor=none;" parent="WIyWlLk6GJQsqaUBKTNV-1" vertex="1">
          <mxGeometry x="120" y="700" width="130" height="40" as="geometry" />
        </mxCell>
        <mxCell id="iMzquYCJ3Ts_0PcDVd9T-76" style="edgeStyle=orthogonalEdgeStyle;rounded=0;orthogonalLoop=1;jettySize=auto;html=1;entryX=0.5;entryY=0;entryDx=0;entryDy=0;dashed=1;exitX=0.5;exitY=1;exitDx=0;exitDy=0;strokeWidth=2;" parent="WIyWlLk6GJQsqaUBKTNV-1" source="iMzquYCJ3Ts_0PcDVd9T-0" target="iMzquYCJ3Ts_0PcDVd9T-21" edge="1">
          <mxGeometry relative="1" as="geometry">
            <mxPoint x="70" y="350" as="sourcePoint" />
            <mxPoint x="210" y="300" as="targetPoint" />
          </mxGeometry>
        </mxCell>
        <mxCell id="iMzquYCJ3Ts_0PcDVd9T-78" value="ShippableProduct &lt;interface&gt;" style="swimlane;fontStyle=1;align=center;verticalAlign=top;childLayout=stackLayout;horizontal=1;startSize=26;horizontalStack=0;resizeParent=1;resizeLast=0;collapsible=1;marginBottom=0;rounded=0;shadow=0;strokeWidth=1;fillColor=#f8cecc;strokeColor=#b85450;" parent="WIyWlLk6GJQsqaUBKTNV-1" vertex="1">
          <mxGeometry x="552" y="1000" width="350" height="92" as="geometry">
            <mxRectangle x="340" y="380" width="170" height="26" as="alternateBounds" />
          </mxGeometry>
        </mxCell>
        <mxCell id="iMzquYCJ3Ts_0PcDVd9T-82" value="" style="line;html=1;strokeWidth=1;align=left;verticalAlign=middle;spacingTop=-1;spacingLeft=3;spacingRight=3;rotatable=0;labelPosition=right;points=[];portConstraint=eastwest;" parent="iMzquYCJ3Ts_0PcDVd9T-78" vertex="1">
          <mxGeometry y="26" width="350" height="8" as="geometry" />
        </mxCell>
        <mxCell id="iMzquYCJ3Ts_0PcDVd9T-93" value="+ caculateShippingPrice() : double " style="text;align=left;verticalAlign=top;spacingLeft=4;spacingRight=4;overflow=hidden;rotatable=0;points=[[0,0.5],[1,0.5]];portConstraint=eastwest;fillColor=#fff2cc;strokeColor=#d6b656;" parent="iMzquYCJ3Ts_0PcDVd9T-78" vertex="1">
          <mxGeometry y="34" width="350" height="26" as="geometry" />
        </mxCell>
        <mxCell id="iMzquYCJ3Ts_0PcDVd9T-89" value="&lt;div&gt;&lt;span style=&quot;font-size: 18px;&quot;&gt;&lt;b&gt;Dependency&lt;/b&gt;&lt;/span&gt;&lt;/div&gt;&lt;b&gt;&lt;font style=&quot;font-size: 18px;&quot;&gt;association&amp;nbsp;&lt;/font&gt;&lt;/b&gt;" style="text;html=1;align=center;verticalAlign=middle;resizable=0;points=[];autosize=1;strokeColor=none;fillColor=none;" parent="WIyWlLk6GJQsqaUBKTNV-1" vertex="1">
          <mxGeometry x="120" y="370" width="130" height="60" as="geometry" />
        </mxCell>
        <mxCell id="iMzquYCJ3Ts_0PcDVd9T-101" value="&lt;span style=&quot;font-size: 18px;&quot;&gt;&lt;b&gt;Composition&lt;/b&gt;&lt;/span&gt;" style="text;html=1;align=center;verticalAlign=middle;resizable=0;points=[];autosize=1;strokeColor=none;fillColor=none;" parent="WIyWlLk6GJQsqaUBKTNV-1" vertex="1">
          <mxGeometry x="580" y="900" width="130" height="40" as="geometry" />
        </mxCell>
        <mxCell id="OOZjDHEv38OCkqJnHEOw-0" value="PhysicalProduct " style="swimlane;fontStyle=1;align=center;verticalAlign=top;childLayout=stackLayout;horizontal=1;startSize=26;horizontalStack=0;resizeParent=1;resizeLast=0;collapsible=1;marginBottom=0;rounded=0;shadow=0;strokeWidth=1;fillColor=#f8cecc;strokeColor=#b85450;" parent="WIyWlLk6GJQsqaUBKTNV-1" vertex="1">
          <mxGeometry x="627" y="790" width="200" height="92" as="geometry">
            <mxRectangle x="340" y="380" width="170" height="26" as="alternateBounds" />
          </mxGeometry>
        </mxCell>
        <mxCell id="OOZjDHEv38OCkqJnHEOw-13" value="-weigth" style="text;align=left;verticalAlign=top;spacingLeft=4;spacingRight=4;overflow=hidden;rotatable=0;points=[[0,0.5],[1,0.5]];portConstraint=eastwest;fillColor=#dae8fc;strokeColor=#6c8ebf;" parent="OOZjDHEv38OCkqJnHEOw-0" vertex="1">
          <mxGeometry y="26" width="200" height="32" as="geometry" />
        </mxCell>
        <mxCell id="iMzquYCJ3Ts_0PcDVd9T-83" value="+ getWeight() : double " style="text;align=left;verticalAlign=top;spacingLeft=4;spacingRight=4;overflow=hidden;rotatable=0;points=[[0,0.5],[1,0.5]];portConstraint=eastwest;fillColor=#fff2cc;strokeColor=#d6b656;" parent="OOZjDHEv38OCkqJnHEOw-0" vertex="1">
          <mxGeometry y="58" width="200" height="26" as="geometry" />
        </mxCell>
        <mxCell id="OOZjDHEv38OCkqJnHEOw-2" value="" style="line;html=1;strokeWidth=1;align=left;verticalAlign=middle;spacingTop=-1;spacingLeft=3;spacingRight=3;rotatable=0;labelPosition=right;points=[];portConstraint=eastwest;" parent="OOZjDHEv38OCkqJnHEOw-0" vertex="1">
          <mxGeometry y="84" width="200" height="8" as="geometry" />
        </mxCell>
        <mxCell id="OOZjDHEv38OCkqJnHEOw-5" value="DigitalProduct" style="swimlane;fontStyle=1;align=center;verticalAlign=top;childLayout=stackLayout;horizontal=1;startSize=26;horizontalStack=0;resizeParent=1;resizeLast=0;collapsible=1;marginBottom=0;rounded=0;shadow=0;strokeWidth=1;fillColor=#f8cecc;strokeColor=#b85450;" parent="WIyWlLk6GJQsqaUBKTNV-1" vertex="1">
          <mxGeometry x="870" y="790" width="200" height="66" as="geometry">
            <mxRectangle x="340" y="380" width="170" height="26" as="alternateBounds" />
          </mxGeometry>
        </mxCell>
        <mxCell id="OOZjDHEv38OCkqJnHEOw-6" value="" style="line;html=1;strokeWidth=1;align=left;verticalAlign=middle;spacingTop=-1;spacingLeft=3;spacingRight=3;rotatable=0;labelPosition=right;points=[];portConstraint=eastwest;" parent="OOZjDHEv38OCkqJnHEOw-5" vertex="1">
          <mxGeometry y="26" width="200" height="8" as="geometry" />
        </mxCell>
        <mxCell id="OOZjDHEv38OCkqJnHEOw-10" value="- DigitalProductData" style="text;align=left;verticalAlign=top;spacingLeft=4;spacingRight=4;overflow=hidden;rotatable=0;points=[[0,0.5],[1,0.5]];portConstraint=eastwest;fillColor=#dae8fc;strokeColor=#6c8ebf;" parent="OOZjDHEv38OCkqJnHEOw-5" vertex="1">
          <mxGeometry y="34" width="200" height="32" as="geometry" />
        </mxCell>
        <mxCell id="OOZjDHEv38OCkqJnHEOw-8" value="" style="endArrow=block;endSize=10;endFill=0;shadow=0;strokeWidth=2;rounded=0;curved=0;edgeStyle=elbowEdgeStyle;elbow=vertical;exitX=0.5;exitY=0;exitDx=0;exitDy=0;entryX=0.5;entryY=1;entryDx=0;entryDy=0;" parent="WIyWlLk6GJQsqaUBKTNV-1" source="OOZjDHEv38OCkqJnHEOw-5" target="iMzquYCJ3Ts_0PcDVd9T-57" edge="1">
          <mxGeometry width="160" relative="1" as="geometry">
            <mxPoint x="960" y="840" as="sourcePoint" />
            <mxPoint x="840" y="672" as="targetPoint" />
          </mxGeometry>
        </mxCell>
        <mxCell id="OOZjDHEv38OCkqJnHEOw-9" value="" style="endArrow=block;endSize=10;endFill=0;shadow=0;strokeWidth=2;rounded=0;curved=0;edgeStyle=elbowEdgeStyle;elbow=vertical;exitX=0.5;exitY=0;exitDx=0;exitDy=0;entryX=0.5;entryY=1;entryDx=0;entryDy=0;" parent="WIyWlLk6GJQsqaUBKTNV-1" source="OOZjDHEv38OCkqJnHEOw-0" target="iMzquYCJ3Ts_0PcDVd9T-57" edge="1">
          <mxGeometry width="160" relative="1" as="geometry">
            <mxPoint x="870" y="800" as="sourcePoint" />
            <mxPoint x="755" y="650" as="targetPoint" />
          </mxGeometry>
        </mxCell>
        <mxCell id="bpceUg1D9PFByk6EcB68-0" value="" style="endArrow=diamond;endFill=1;endSize=24;html=1;rounded=0;exitX=0.5;exitY=1;exitDx=0;exitDy=0;strokeWidth=2;entryX=0.5;entryY=0;entryDx=0;entryDy=0;flowAnimation=1;" edge="1" parent="WIyWlLk6GJQsqaUBKTNV-1" source="OOZjDHEv38OCkqJnHEOw-0" target="iMzquYCJ3Ts_0PcDVd9T-78">
          <mxGeometry width="160" relative="1" as="geometry">
            <mxPoint x="300" y="1159" as="sourcePoint" />
            <mxPoint x="491" y="915" as="targetPoint" />
            <Array as="points">
              <mxPoint x="720" y="940" />
            </Array>
          </mxGeometry>
        </mxCell>
      </root>
    </mxGraphModel>
  </diagram>
  <diagram id="LIUEhF9pJ5jut7Abpg8G" name="Page-2">
    <mxGraphModel dx="1194" dy="705" grid="1" gridSize="10" guides="1" tooltips="1" connect="1" arrows="1" fold="1" page="1" pageScale="1" pageWidth="850" pageHeight="1100" math="0" shadow="0">
      <root>
        <mxCell id="0" />
        <mxCell id="1" parent="0" />
      </root>
    </mxGraphModel>
  </diagram>
</mxfile>
